<?xml version="1.0" encoding="UTF-8" standalone="no"?>
<!DOCTYPE svg PUBLIC "-//W3C//DTD SVG 1.1//EN" "http://www.w3.org/Graphics/SVG/1.1/DTD/svg11.dtd">
<svg version="1.1" xmlns="http://www.w3.org/2000/svg" xmlns:xlink="http://www.w3.org/1999/xlink" preserveAspectRatio="xMidYMid meet" viewBox="48.64959226436389 79.81893499669457 561.2920648876216 518.9492827381606" width="560.29" height="514.95"><defs><path d="M287.53 475.98L288.9 476.14L290.27 476.35L291.63 476.61L292.97 476.92L294.3 477.28L295.61 477.7L296.9 478.16L298.18 478.67L299.43 479.23L300.66 479.84L301.87 480.49L303.05 481.19L304.21 481.93L305.34 482.72L306.44 483.56L307.5 484.43L308.54 485.35L309.54 486.31L310.5 487.31L311.43 488.35L312.32 489.43L313.17 490.55L313.98 491.71L314.74 492.91L315.47 494.14L316.14 495.41L316.77 496.71L317.35 498.05L317.87 499.43L318.35 500.82L318.76 502.22L319.11 503.62L319.4 505.03L319.63 506.44L319.81 507.85L319.93 509.26L319.99 510.66L320 512.06L319.95 513.45L319.85 514.84L319.69 516.22L319.49 517.59L319.22 518.94L318.91 520.29L318.55 521.61L318.14 522.92L317.67 524.22L317.16 525.49L316.6 526.75L316 527.98L315.34 529.19L314.64 530.37L313.9 531.53L313.11 532.65L312.28 533.75L311.4 534.82L310.48 535.85L309.52 536.85L308.52 537.82L307.48 538.75L306.4 539.64L305.28 540.49L304.12 541.3L302.93 542.06L301.69 542.78L300.42 543.46L299.12 544.08L297.78 544.66L296.41 545.19L296.28 545.24L296.15 545.28L296.03 545.32L295.9 545.37L295.77 545.41L295.65 545.45L295.52 545.49L295.39 545.54L295.26 545.58L295.14 545.62L295.01 545.65L294.88 545.69L294.76 545.73L294.63 545.77L294.5 545.81L294.37 545.84L294.25 545.88L294.12 545.91L293.99 545.95L293.86 545.98L293.74 546.02L293.61 546.05L293.48 546.08L293.35 546.11L293.22 546.15L293.1 546.18L292.97 546.21L292.84 546.24L292.71 546.27L292.58 546.3L292.46 546.33L292.33 546.36L292.2 546.39L292.07 546.41L291.94 546.44L291.82 546.47L291.69 546.5L291.56 546.52L291.43 546.55L291.3 546.57L291.32 546.61L291.33 546.64L291.34 546.67L291.36 546.71L291.37 546.74L291.39 546.77L291.4 546.8L291.41 546.84L291.43 546.87L291.44 546.9L291.46 546.93L291.47 546.96L291.48 547L291.5 547.03L291.53 547.09L291.56 547.16L291.57 547.19L291.58 547.22L291.6 547.26L291.61 547.29L291.63 547.32L291.64 547.35L291.65 547.39L291.67 547.42L291.68 547.45L291.7 547.48L291.71 547.52L291.72 547.55L291.74 547.58L291.75 547.61L291.76 547.65L291.78 547.68L291.79 547.71L291.8 547.75L291.81 547.78L291.83 547.81L291.84 547.85L291.85 547.88L292.32 549.27L292.73 550.67L293.09 552.08L293.38 553.48L293.61 554.89L293.79 556.3L293.91 557.71L293.97 559.11L293.98 560.51L293.93 561.91L293.83 563.29L293.67 564.67L293.46 566.04L293.2 567.4L292.89 568.74L292.53 570.07L292.11 571.38L291.65 572.67L291.14 573.95L290.58 575.2L289.97 576.43L289.32 577.64L288.62 578.82L287.88 579.98L287.09 581.11L286.26 582.2L285.38 583.27L284.46 584.31L283.5 585.31L282.5 586.27L281.46 587.2L280.38 588.09L279.26 588.94L278.1 589.75L276.9 590.51L275.67 591.23L274.4 591.91L273.1 592.54L271.76 593.11L270.38 593.64L269.27 594.03L268.14 594.37L267.02 594.68L265.89 594.94L264.76 595.17L263.63 595.36L262.5 595.52L261.37 595.64L260.24 595.72L259.11 595.76L257.99 595.77L256.87 595.74L255.75 595.68L254.64 595.58L253.54 595.45L252.44 595.28L251.35 595.08L250.27 594.85L249.2 594.59L248.13 594.29L247.08 593.96L246.04 593.6L245.01 593.2L243.99 592.78L242.99 592.32L242 591.83L241.03 591.32L240.07 590.77L239.13 590.2L238.2 589.59L237.3 588.96L236.41 588.3L235.54 587.61L234.7 586.89L233.87 586.15L233.07 585.37L232.29 584.58L231.53 583.75L230.8 582.9L230.09 582.03L229.82 582.3L229.55 582.56L229.27 582.82L228.99 583.08L228.71 583.33L228.43 583.59L228.14 583.84L227.85 584.08L227.56 584.33L227.26 584.57L226.96 584.81L226.66 585.04L226.36 585.28L226.05 585.51L225.74 585.73L225.43 585.96L225.11 586.18L224.79 586.39L224.47 586.61L224.15 586.82L223.82 587.03L223.49 587.23L223.16 587.43L222.82 587.63L222.48 587.82L222.14 588.01L221.8 588.2L221.45 588.38L221.1 588.56L220.75 588.74L220.4 588.91L220.04 589.08L219.68 589.25L219.32 589.41L218.96 589.57L218.59 589.72L218.22 589.87L217.85 590.02L217.47 590.16L217.09 590.3L215.7 590.77L214.3 591.19L212.9 591.54L211.49 591.83L210.08 592.06L208.67 592.24L207.26 592.36L205.86 592.42L204.46 592.43L203.07 592.38L201.68 592.28L200.3 592.12L198.93 591.91L197.58 591.65L196.23 591.34L194.91 590.98L193.6 590.56L192.3 590.1L191.03 589.59L189.77 589.03L188.54 588.42L187.33 587.77L186.15 587.07L184.99 586.33L183.87 585.54L182.77 584.71L181.7 583.83L180.67 582.91L179.67 581.95L178.7 580.95L177.77 579.91L176.88 578.83L176.03 577.71L175.22 576.55L174.46 575.35L173.74 574.12L173.06 572.85L172.44 571.55L171.86 570.21L171.33 568.84L170.86 567.44L170.45 566.04L170.1 564.64L169.8 563.23L169.57 561.82L169.39 560.41L169.27 559.01L169.21 557.6L169.2 556.2L169.25 554.81L169.35 553.42L169.51 552.04L169.72 550.67L169.98 549.32L170.29 547.98L170.65 546.65L171.07 545.34L171.53 544.04L172.04 542.77L172.6 541.52L173.21 540.28L173.86 539.08L174.56 537.89L175.3 536.74L176.09 535.61L176.93 534.51L177.8 533.44L178.72 532.41L179.68 531.41L180.68 530.44L181.72 529.51L182.8 528.62L183.92 527.77L185.08 526.97L186.28 526.2L187.51 525.48L188.78 524.81L190.08 524.18L191.42 523.6L192.8 523.07L193.92 522.69L195.04 522.34L196.16 522.04L197.29 521.77L198.42 521.54L199.55 521.35L200.68 521.2L201.81 521.08L202.94 521L204.07 520.95L205.19 520.95L206.31 520.97L207.43 521.04L208.54 521.13L209.64 521.26L210.74 521.43L211.83 521.63L212.91 521.86L213.99 522.13L215.05 522.43L216.1 522.76L217.14 523.12L218.17 523.51L219.19 523.94L220.19 524.39L221.18 524.88L222.16 525.4L223.11 525.94L224.05 526.52L224.98 527.12L225.88 527.76L226.77 528.42L227.64 529.11L228.48 529.83L229.31 530.57L230.11 531.34L230.89 532.14L231.65 532.96L232.38 533.81L233.09 534.68L233.36 534.42L233.63 534.16L233.91 533.89L234.19 533.64L234.47 533.38L234.75 533.13L235.04 532.88L235.33 532.63L235.62 532.39L235.92 532.15L236.22 531.91L236.52 531.67L236.82 531.44L237.13 531.21L237.44 530.98L237.76 530.76L238.07 530.54L238.39 530.32L238.71 530.11L239.04 529.9L239.36 529.69L239.69 529.49L240.02 529.28L240.36 529.09L240.7 528.89L241.04 528.7L241.38 528.51L241.73 528.33L242.08 528.15L242.43 527.97L242.78 527.8L243.14 527.63L243.5 527.47L243.86 527.3L244.22 527.15L244.59 526.99L244.96 526.84L245.34 526.69L245.71 526.55L246.09 526.41L246.21 526.37L246.34 526.32L246.47 526.28L246.59 526.23L246.72 526.19L246.85 526.15L246.98 526.11L247.1 526.07L247.23 526.03L247.36 525.99L247.48 525.95L247.61 525.91L247.74 525.87L247.87 525.83L247.99 525.8L248.12 525.76L248.25 525.72L248.38 525.69L248.5 525.65L248.63 525.62L248.76 525.59L248.89 525.55L249.02 525.52L249.14 525.49L249.27 525.46L249.4 525.42L249.53 525.39L249.65 525.36L249.78 525.33L249.91 525.3L250.04 525.27L250.17 525.25L250.29 525.22L250.42 525.19L250.55 525.16L250.68 525.13L250.81 525.11L250.94 525.08L251.06 525.05L251.19 525.03L251.18 525L251.16 524.96L251.15 524.93L251.14 524.9L251.12 524.86L251.11 524.83L251.1 524.8L251.08 524.77L251.07 524.73L251.05 524.7L251.04 524.67L251.03 524.64L251.01 524.61L251 524.57L250.97 524.51L250.94 524.44L250.93 524.41L250.91 524.38L250.9 524.35L250.88 524.31L250.87 524.28L250.86 524.25L250.84 524.22L250.83 524.18L250.81 524.15L250.8 524.12L250.79 524.09L250.77 524.05L250.76 524.02L250.75 523.99L250.73 523.96L250.72 523.92L250.71 523.89L250.69 523.86L250.68 523.82L250.67 523.79L250.66 523.76L250.64 523.72L250.17 522.33L249.76 520.93L249.41 519.53L249.12 518.12L248.88 516.71L248.71 515.3L248.59 513.89L248.52 512.49L248.52 511.09L248.57 509.69L248.67 508.31L248.82 506.93L249.03 505.56L249.29 504.21L249.61 502.86L249.97 501.54L250.38 500.22L250.84 498.93L251.36 497.66L251.91 496.4L252.52 495.17L253.17 493.96L253.87 492.78L254.62 491.62L255.41 490.5L256.24 489.4L257.12 488.33L258.03 487.3L258.99 486.29L259.99 485.33L261.04 484.4L262.12 483.51L263.24 482.66L264.4 481.85L265.59 481.09L266.82 480.37L268.09 479.69L269.4 479.07L270.74 478.49L272.11 477.96L273.5 477.49L274.9 477.08L276.31 476.72L277.72 476.43L279.12 476.2L280.53 476.02L281.94 475.9L283.35 475.84L284.75 475.83L286.14 475.88L287.53 475.98ZM255.26 544.05L253.98 544.35L252.71 544.75L251.48 545.25L250.31 545.85L249.2 546.52L248.17 547.27L247.2 548.1L246.31 548.99L245.49 549.95L244.75 550.96L244.1 552.02L243.53 553.13L243.04 554.28L242.64 555.46L242.34 556.68L242.12 557.91L242.01 559.17L241.99 560.44L242.07 561.72L242.26 563L242.55 564.28L242.95 565.55L243.46 566.79L244.05 567.96L244.73 569.06L245.48 570.1L246.3 571.06L247.2 571.96L248.15 572.77L249.16 573.51L250.23 574.17L251.33 574.74L252.48 575.22L253.67 575.62L254.88 575.93L256.12 576.14L257.38 576.26L258.65 576.28L259.92 576.19L261.21 576.01L262.49 575.71L263.76 575.31L264.99 574.81L266.16 574.21L267.27 573.54L268.3 572.79L269.27 571.96L270.16 571.07L270.98 570.11L271.72 569.1L272.37 568.04L272.94 566.93L273.43 565.78L273.83 564.6L274.13 563.38L274.35 562.15L274.46 560.89L274.48 559.62L274.4 558.34L274.21 557.06L273.92 555.78L273.51 554.51L273.01 553.27L272.42 552.1L271.74 551L270.99 549.96L270.16 548.99L269.27 548.1L268.32 547.29L267.31 546.55L266.24 545.89L265.13 545.32L263.99 544.83L262.8 544.44L261.59 544.13L260.35 543.92L259.09 543.8L257.82 543.78L256.55 543.87L255.26 544.05ZM201.97 540.71L200.69 541.01L199.42 541.41L198.19 541.91L197.02 542.51L195.91 543.18L194.87 543.93L193.91 544.76L193.02 545.65L192.2 546.61L191.46 547.62L190.81 548.68L190.24 549.79L189.75 550.94L189.35 552.12L189.04 553.34L188.83 554.57L188.72 555.83L188.7 557.1L188.78 558.38L188.97 559.66L189.26 560.94L189.66 562.21L190.17 563.45L190.76 564.62L191.44 565.72L192.19 566.76L193.01 567.72L193.91 568.62L194.86 569.43L195.87 570.17L196.94 570.83L198.04 571.4L199.19 571.88L200.38 572.28L201.59 572.59L202.83 572.8L204.08 572.92L205.35 572.94L206.63 572.85L207.92 572.67L209.19 572.37L210.47 571.97L211.7 571.47L212.87 570.87L213.98 570.2L215.01 569.45L215.98 568.62L216.87 567.73L217.69 566.77L218.43 565.76L219.08 564.7L219.65 563.59L220.14 562.44L220.54 561.26L220.84 560.04L221.06 558.81L221.17 557.55L221.19 556.28L221.11 555L220.92 553.72L220.63 552.44L220.22 551.17L219.72 549.93L219.13 548.76L218.45 547.66L217.7 546.62L216.87 545.65L215.98 544.76L215.03 543.95L214.01 543.21L212.95 542.55L211.84 541.98L210.7 541.49L209.51 541.1L208.3 540.79L207.06 540.58L205.8 540.46L204.53 540.44L203.25 540.53L201.97 540.71ZM281.29 495.6L280.01 495.89L278.74 496.29L277.5 496.8L276.33 497.39L275.23 498.07L274.19 498.82L273.22 499.64L272.33 500.54L271.52 501.49L270.78 502.5L270.12 503.57L269.55 504.67L269.06 505.82L268.67 507.01L268.36 508.22L268.15 509.46L268.03 510.72L268.01 511.99L268.1 513.26L268.28 514.55L268.58 515.83L268.98 517.1L269.48 518.33L270.07 519.5L270.75 520.61L271.5 521.64L272.33 522.61L273.22 523.5L274.18 524.32L275.19 525.06L276.25 525.71L277.36 526.28L278.51 526.77L279.69 527.17L280.9 527.47L282.14 527.69L283.4 527.8L284.67 527.82L285.95 527.74L287.23 527.55L288.51 527.26L289.78 526.85L291.02 526.35L292.19 525.76L293.29 525.08L294.33 524.33L295.29 523.5L296.19 522.61L297 521.66L297.74 520.65L298.4 519.58L298.97 518.48L299.45 517.33L299.85 516.14L300.16 514.93L300.37 513.69L300.49 512.43L300.51 511.16L300.42 509.89L300.23 508.6L299.94 507.32L299.54 506.05L299.04 504.82L298.44 503.65L297.77 502.54L297.01 501.5L296.19 500.54L295.3 499.65L294.34 498.83L293.33 498.09L292.27 497.44L291.16 496.87L290.01 496.38L288.83 495.98L287.61 495.68L286.38 495.46L285.12 495.35L283.85 495.33L282.57 495.41L281.29 495.6Z" id="dIB8T4L2W"></path><path d="M213.89 80.97L218.29 81.23L222.66 81.61L227.02 82.11L231.35 82.74L235.66 83.48L239.95 84.34L244.2 85.32L248.42 86.42L252.61 87.63L256.77 88.96L260.88 90.4L264.95 91.95L268.98 93.61L272.96 95.39L276.89 97.27L280.77 99.26L284.6 101.36L288.37 103.57L292.08 105.88L295.73 108.3L299.32 110.82L302.84 113.45L306.29 116.17L309.66 119L308.63 120.12L307.61 121.25L306.6 122.38L305.6 123.53L304.61 124.68L303.63 125.83L302.66 127L301.7 128.17L300.75 129.35L299.8 130.53L298.87 131.73L297.95 132.93L297.04 134.13L296.14 135.35L295.25 136.57L294.36 137.8L293.49 139.04L292.63 140.28L291.78 141.53L290.94 142.78L290.11 144.05L289.29 145.32L288.48 146.6L287.68 147.88L286.89 149.17L286.11 150.47L285.34 151.77L284.58 153.08L283.84 154.4L283.1 155.73L282.37 157.06L281.66 158.4L280.95 159.74L280.26 161.09L279.57 162.45L278.9 163.81L278.24 165.18L277.58 166.56L276.94 167.94L276.31 169.33L276.19 169.61L276.06 169.89L275.94 170.17L275.81 170.45L275.69 170.73L275.57 171.01L275.45 171.29L275.33 171.57L275.21 171.85L275.09 172.13L274.97 172.41L274.85 172.69L274.73 172.97L274.62 173.25L274.5 173.53L274.38 173.81L274.27 174.09L274.15 174.37L274.04 174.66L273.92 174.94L273.81 175.22L273.69 175.5L273.58 175.78L273.47 176.07L273.36 176.35L273.24 176.63L273.13 176.92L273.02 177.2L272.91 177.48L272.8 177.76L272.69 178.05L272.58 178.33L272.47 178.61L272.37 178.9L272.26 179.18L272.15 179.47L272.04 179.75L271.94 180.03L271.83 180.32L271.72 180.6L271.04 179.84L270.35 179.09L269.65 178.34L268.94 177.61L268.23 176.88L267.5 176.16L266.77 175.45L266.02 174.75L265.27 174.06L264.52 173.38L263.75 172.7L262.97 172.04L262.19 171.38L261.4 170.73L260.6 170.1L259.79 169.47L258.98 168.85L258.16 168.24L257.32 167.64L256.49 167.05L255.64 166.47L254.79 165.9L253.93 165.34L253.06 164.78L252.19 164.24L251.3 163.71L250.41 163.19L249.52 162.68L248.61 162.18L247.7 161.68L246.78 161.2L245.86 160.73L244.93 160.27L243.99 159.82L243.05 159.38L242.09 158.96L241.14 158.54L240.17 158.13L239.2 157.73L238.22 157.35L236.6 156.74L234.97 156.16L233.34 155.62L231.69 155.11L230.05 154.63L228.39 154.19L226.74 153.78L225.07 153.4L223.41 153.05L221.74 152.74L220.06 152.47L218.39 152.22L216.71 152.01L215.03 151.83L213.34 151.69L211.66 151.58L209.98 151.5L208.29 151.46L206.61 151.45L204.92 151.47L203.24 151.52L201.55 151.61L199.87 151.73L198.19 151.89L196.52 152.08L194.84 152.3L193.17 152.55L191.5 152.84L189.84 153.16L188.18 153.52L186.53 153.9L184.88 154.32L183.24 154.78L181.6 155.26L179.97 155.78L178.34 156.33L176.73 156.92L175.12 157.54L173.52 158.19L171.93 158.87L170.35 159.59L168.79 160.33L167.25 161.1L165.72 161.9L164.22 162.73L162.74 163.59L161.28 164.47L159.83 165.38L158.41 166.31L157.01 167.27L155.63 168.26L154.28 169.28L152.94 170.31L151.63 171.38L150.33 172.46L149.06 173.58L147.82 174.71L146.6 175.87L145.4 177.06L144.22 178.26L143.07 179.49L141.94 180.75L140.84 182.02L139.76 183.32L138.71 184.64L137.68 185.98L136.68 187.34L135.7 188.72L134.75 190.12L133.83 191.55L132.93 192.99L132.07 194.45L131.22 195.94L130.41 197.44L129.62 198.96L128.87 200.5L128.14 202.05L127.44 203.63L126.77 205.22L126.12 206.83L125.51 208.45L124.94 210.08L124.39 211.72L123.88 213.36L123.4 215.01L122.96 216.66L122.55 218.32L122.17 219.98L121.83 221.65L121.52 223.32L121.24 224.99L121 226.67L120.79 228.35L120.61 230.03L120.47 231.71L120.36 233.39L120.28 235.08L120.23 236.76L120.22 238.45L120.24 240.13L120.3 241.82L120.39 243.5L120.51 245.18L120.67 246.86L120.85 248.54L121.07 250.21L121.33 251.88L121.62 253.55L121.94 255.21L122.29 256.87L122.68 258.53L123.1 260.18L123.55 261.82L124.04 263.46L124.56 265.09L125.11 266.71L125.69 268.33L126.31 269.94L126.96 271.54L127.65 273.13L128.36 274.71L129.11 276.27L129.88 277.81L130.68 279.33L131.51 280.83L132.36 282.32L133.24 283.78L134.15 285.22L135.09 286.64L136.05 288.04L137.04 289.42L138.05 290.78L139.09 292.12L140.15 293.43L141.24 294.72L142.35 295.99L143.49 297.24L144.65 298.46L145.83 299.66L147.04 300.83L148.27 301.99L149.52 303.11L150.8 304.22L152.09 305.29L153.41 306.35L154.75 307.37L156.12 308.38L157.5 309.35L158.9 310.3L160.32 311.22L161.77 312.12L163.23 312.99L164.71 313.83L166.21 314.64L167.73 315.43L169.27 316.19L170.83 316.92L172.4 317.62L174 318.29L175.61 318.93L177.23 319.54L178.86 320.12L180.49 320.66L182.14 321.17L183.78 321.65L185.44 322.09L187.09 322.5L188.76 322.88L190.42 323.23L192.09 323.54L193.77 323.81L195.44 324.06L197.12 324.27L198.8 324.44L200.49 324.59L202.17 324.7L203.85 324.78L205.54 324.82L207.23 324.83L208.91 324.81L210.59 324.76L212.28 324.67L213.96 324.55L215.64 324.39L217.31 324.2L218.99 323.98L220.66 323.73L222.33 323.44L223.99 323.12L225.65 322.76L227.3 322.38L228.95 321.96L230.6 321.5L232.23 321.02L233.86 320.5L235.49 319.95L237.1 319.36L238.71 318.74L240.31 318.09L241.91 317.41L242.64 317.08L243.38 316.74L244.11 316.4L244.83 316.05L245.56 315.69L246.27 315.33L246.99 314.97L247.7 314.59L248.4 314.21L249.1 313.83L249.8 313.44L250.49 313.04L251.18 312.63L251.86 312.23L252.54 311.81L253.22 311.39L253.89 310.96L254.55 310.53L255.21 310.09L255.87 309.65L256.52 309.2L257.17 308.74L257.81 308.28L258.45 307.81L259.08 307.34L259.71 306.86L260.33 306.38L260.95 305.89L261.57 305.4L262.18 304.9L262.78 304.4L263.38 303.89L263.98 303.37L264.57 302.85L265.15 302.32L265.73 301.79L266.31 301.26L266.88 300.72L267.44 300.17L268 299.62L268.22 300.32L268.43 301.02L268.66 301.71L268.89 302.41L269.12 303.11L269.36 303.8L269.61 304.5L269.86 305.19L270.11 305.88L270.37 306.57L270.63 307.26L270.9 307.95L271.17 308.64L271.44 309.33L271.72 310.02L272 310.7L272.28 311.39L272.57 312.07L272.86 312.75L273.16 313.44L273.45 314.12L273.75 314.8L274.05 315.47L274.35 316.15L274.66 316.83L274.97 317.5L275.28 318.18L275.59 318.85L275.9 319.52L276.21 320.19L276.53 320.86L276.84 321.53L277.16 322.19L277.47 322.86L277.79 323.52L278.11 324.18L278.43 324.85L278.74 325.51L279.06 326.16L279.38 326.82L280.15 328.38L280.94 329.94L281.75 331.49L282.59 333.03L283.45 334.57L284.33 336.09L285.23 337.61L286.14 339.13L287.08 340.63L288.04 342.13L289.01 343.62L290 345.1L291 346.57L292.02 348.03L293.05 349.49L294.1 350.93L295.16 352.37L296.23 353.8L297.32 355.22L298.41 356.63L299.52 358.03L300.63 359.42L301.75 360.8L302.89 362.17L304.02 363.53L305.17 364.88L306.32 366.22L307.48 367.55L308.64 368.86L309.8 370.17L310.97 371.47L312.14 372.76L313.32 374.03L314.49 375.29L315.66 376.55L316.84 377.79L318.01 379.01L319.18 380.23L320.35 381.43L321.51 382.63L320.23 441.37L320.23 441.55L320.22 441.73L320.21 441.91L320.2 442.09L320.18 442.27L320.16 442.45L320.15 442.63L320.12 442.81L320.1 442.98L320.08 443.16L320.05 443.34L320.03 443.52L320 443.7L319.97 443.88L319.94 444.05L319.92 444.23L319.89 444.41L319.86 444.59L319.83 444.77L319.8 444.94L319.77 445.12L319.75 445.3L319.72 445.48L319.69 445.65L319.67 445.83L319.65 446.01L319.63 446.18L319.61 446.36L319.59 446.54L319.57 446.71L319.56 446.89L319.55 447.07L319.54 447.24L319.53 447.42L319.53 447.6L319.52 447.77L319.53 447.95L319.53 448.12L319.54 448.3L319.55 448.48L252.62 477.81L251.13 478.43L249.63 478.99L248.12 479.48L246.59 479.91L245.07 480.27L243.53 480.57L242 480.81L240.46 480.98L238.92 481.1L237.39 481.15L235.86 481.15L234.33 481.08L232.81 480.96L231.3 480.77L229.8 480.53L228.32 480.24L226.84 479.89L225.39 479.48L223.95 479.01L222.52 478.5L221.12 477.93L219.75 477.3L218.39 476.63L217.06 475.9L215.76 475.12L214.49 474.3L213.25 473.42L212.04 472.49L210.87 471.51L209.73 470.49L208.63 469.42L207.57 468.31L206.55 467.14L205.58 465.94L204.65 464.68L203.76 463.39L202.93 462.05L202.14 460.67L201.4 459.24L200.72 457.78L171.28 391.33L167.8 390.47L164.35 389.54L160.92 388.53L157.52 387.44L154.14 386.28L150.79 385.04L147.47 383.73L144.18 382.34L140.92 380.87L137.69 379.34L134.5 377.73L131.34 376.05L128.22 374.29L125.14 372.47L122.1 370.57L119.1 368.6L116.14 366.56L113.23 364.46L110.36 362.28L107.54 360.04L104.76 357.73L102.04 355.35L99.37 352.91L96.75 350.4L94.18 347.82L91.67 345.18L89.21 342.47L86.81 339.7L84.48 336.87L82.2 333.97L79.98 331.01L77.83 327.99L75.74 324.91L73.72 321.76L71.77 318.56L69.89 315.3L68.07 311.98L66.33 308.6L64.66 305.16L63.07 301.66L60.57 295.67L58.34 289.65L56.36 283.58L54.65 277.49L53.19 271.37L51.99 265.23L51.03 259.09L50.33 252.94L49.87 246.79L49.65 240.65L49.67 234.53L49.94 228.44L50.43 222.37L51.16 216.34L52.12 210.35L53.31 204.42L54.72 198.54L56.36 192.72L58.22 186.97L60.29 181.3L62.58 175.71L65.08 170.22L67.79 164.81L70.7 159.52L73.83 154.33L77.15 149.26L80.67 144.31L84.39 139.49L88.3 134.81L92.41 130.27L96.7 125.88L101.18 121.65L105.85 117.58L110.69 113.69L115.72 109.96L120.92 106.43L126.29 103.08L131.83 99.93L137.55 96.98L143.43 94.24L147.74 92.41L152.08 90.72L156.44 89.16L160.82 87.74L165.21 86.46L169.62 85.31L174.04 84.29L178.47 83.41L182.9 82.65L187.34 82.03L191.78 81.54L196.21 81.17L200.64 80.93L205.07 80.82L209.49 80.83L213.89 80.97ZM272.02 386.29L270.71 386.46L269.42 386.72L268.16 387.05L266.93 387.45L265.74 387.93L264.58 388.47L263.46 389.08L262.38 389.75L261.35 390.49L260.36 391.28L259.42 392.13L258.53 393.03L257.7 393.98L256.92 394.98L256.2 396.03L255.54 397.12L254.95 398.26L254.43 399.43L253.97 400.64L253.58 401.88L253.27 403.16L253.04 404.46L252.89 405.79L252.81 407.14L252.83 408.5L252.92 409.84L253.1 411.15L253.35 412.43L253.68 413.69L254.09 414.92L254.56 416.12L255.11 417.27L255.71 418.39L256.39 419.47L257.12 420.51L257.91 421.49L258.76 422.43L259.66 423.32L260.62 424.16L261.62 424.93L262.67 425.65L263.76 426.31L264.89 426.9L266.06 427.43L267.27 427.89L268.52 428.27L269.79 428.58L271.09 428.82L272.42 428.97L273.78 429.04L275.13 429.03L276.47 428.93L277.78 428.76L279.07 428.5L280.33 428.17L281.56 427.77L282.75 427.29L283.91 426.75L285.03 426.14L286.11 425.47L287.14 424.73L288.13 423.94L289.07 423.09L289.96 422.19L290.79 421.24L291.57 420.24L292.29 419.19L292.95 418.1L293.54 416.96L294.06 415.79L294.52 414.58L294.91 413.34L295.22 412.06L295.45 410.76L295.6 409.43L295.68 408.08L295.66 406.72L295.57 405.38L295.39 404.07L295.14 402.79L294.81 401.53L294.4 400.3L293.93 399.11L293.38 397.95L292.78 396.83L292.1 395.75L291.37 394.71L290.58 393.73L289.73 392.79L288.83 391.9L287.87 391.06L286.87 390.29L285.82 389.57L284.73 388.91L283.6 388.32L282.43 387.79L281.22 387.33L279.97 386.95L278.7 386.64L277.4 386.4L276.07 386.25L274.71 386.18L273.36 386.19L272.02 386.29Z" id="c3Ns0OAky"></path><linearGradient id="gradientb8Fn3uzj0" gradientUnits="userSpaceOnUse" x1="203.21" y1="223.72" x2="355.16" y2="399.09"><stop style="stop-color: #ffffff;stop-opacity: 1" offset="0%"></stop><stop style="stop-color: #010000;stop-opacity: 1" offset="100%"></stop></linearGradient><path d="M321.51 258.59C356.24 255.42 383.42 252.44 403.04 249.63C422.67 246.83 448.69 236.12 481.09 217.49L483.86 238.82C466.04 256.9 442.11 269.12 412.09 275.47C382.06 281.83 351.87 285.21 321.51 285.61L321.51 595.77L342.65 593.03L358.83 588.05C353.69 580.32 348.54 567.46 343.39 549.44C340.15 538.09 350.68 538.87 361.72 536.05C376.96 532.16 397.25 525.21 420.39 504.31C442.33 484.49 457.27 438.67 457.53 438.68C457.79 438.69 458.47 445.23 459.13 462.97C460.1 489.24 452.84 516.78 437.34 545.58C447.76 536.74 466.13 524.49 492.45 508.82C531.92 485.31 548.83 468.66 553.25 450.47C557.66 432.29 546.05 411.87 513.26 366.11C508.79 359.87 503.57 351.61 497.61 341.34C576.34 319 613.69 289.82 609.65 253.78C605.6 217.75 560.85 189.48 475.39 168.97C472.44 144.34 470.88 128.85 470.71 122.52C470.46 113.01 451.33 95.09 431.31 90.25C406.84 84.33 370.24 81.19 321.51 80.82L321.51 258.59Z" id="aouiumb3"></path><path d="M457.55 407.97C449.75 423.57 446.46 434.32 427.68 452.56C408.91 470.81 369.99 482.42 360.36 481.04C350.73 479.67 345.81 469.25 344.86 464.35C344.23 461.08 344.05 456.82 344.3 451.58C350.18 452.1 356.54 451.96 363.39 451.16C373.66 449.96 373.12 445.87 377.74 442.98C382.37 440.09 390.15 440.15 390.24 438.78C390.32 437.41 383.6 436.17 376.91 433.31C370.22 430.45 366.37 427.67 359.31 427.53C352.25 427.38 339.27 433.93 344.86 423.5C350.46 413.07 374.85 413.47 374.33 411.61C373.8 409.74 368.95 406.49 359.9 406.67C350.84 406.85 349.1 403.99 346.56 399.52C344.87 396.54 349.32 383.81 359.9 361.34L409.11 358.52L469.97 349.41C466.89 378.06 462.75 397.58 457.55 407.97Z" id="arufZ9hfo"></path></defs><g><g><g><filter id="shadow13014744" x="160.2" y="466.83" width="169.8" height="138.93" filterUnits="userSpaceOnUse" primitiveUnits="userSpaceOnUse"><feFlood></feFlood><feComposite in2="SourceAlpha" operator="in"></feComposite><feGaussianBlur stdDeviation="1"></feGaussianBlur><feOffset dx="1" dy="1" result="afterOffset"></feOffset><feFlood flood-color="#000000" flood-opacity="0.5"></feFlood><feComposite in2="afterOffset" operator="in"></feComposite><feMorphology operator="dilate" radius="1"></feMorphology><feComposite in2="SourceAlpha" operator="out"></feComposite></filter><path d="M287.53 475.98L288.9 476.14L290.27 476.35L291.63 476.61L292.97 476.92L294.3 477.28L295.61 477.7L296.9 478.16L298.18 478.67L299.43 479.23L300.66 479.84L301.87 480.49L303.05 481.19L304.21 481.93L305.34 482.72L306.44 483.56L307.5 484.43L308.54 485.35L309.54 486.31L310.5 487.31L311.43 488.35L312.32 489.43L313.17 490.55L313.98 491.71L314.74 492.91L315.47 494.14L316.14 495.41L316.77 496.71L317.35 498.05L317.87 499.43L318.35 500.82L318.76 502.22L319.11 503.62L319.4 505.03L319.63 506.44L319.81 507.85L319.93 509.26L319.99 510.66L320 512.06L319.95 513.45L319.85 514.84L319.69 516.22L319.49 517.59L319.22 518.94L318.91 520.29L318.55 521.61L318.14 522.92L317.67 524.22L317.16 525.49L316.6 526.75L316 527.98L315.34 529.19L314.64 530.37L313.9 531.53L313.11 532.65L312.28 533.75L311.4 534.82L310.48 535.85L309.52 536.85L308.52 537.82L307.48 538.75L306.4 539.64L305.28 540.49L304.12 541.3L302.93 542.06L301.69 542.78L300.42 543.46L299.12 544.08L297.78 544.66L296.41 545.19L296.28 545.24L296.15 545.28L296.03 545.32L295.9 545.37L295.77 545.41L295.65 545.45L295.52 545.49L295.39 545.54L295.26 545.58L295.14 545.62L295.01 545.65L294.88 545.69L294.76 545.73L294.63 545.77L294.5 545.81L294.37 545.84L294.25 545.88L294.12 545.91L293.99 545.95L293.86 545.98L293.74 546.02L293.61 546.05L293.48 546.08L293.35 546.11L293.22 546.15L293.1 546.18L292.97 546.21L292.84 546.24L292.71 546.27L292.58 546.3L292.46 546.33L292.33 546.36L292.2 546.39L292.07 546.41L291.94 546.44L291.82 546.47L291.69 546.5L291.56 546.52L291.43 546.55L291.3 546.57L291.32 546.61L291.33 546.64L291.34 546.67L291.36 546.71L291.37 546.74L291.39 546.77L291.4 546.8L291.41 546.84L291.43 546.87L291.44 546.9L291.46 546.93L291.47 546.96L291.48 547L291.5 547.03L291.53 547.09L291.56 547.16L291.57 547.19L291.58 547.22L291.6 547.26L291.61 547.29L291.63 547.32L291.64 547.35L291.65 547.39L291.67 547.42L291.68 547.45L291.7 547.48L291.71 547.52L291.72 547.55L291.74 547.58L291.75 547.61L291.76 547.65L291.78 547.68L291.79 547.71L291.8 547.75L291.81 547.78L291.83 547.81L291.84 547.85L291.85 547.88L292.32 549.27L292.73 550.67L293.09 552.08L293.38 553.48L293.61 554.89L293.79 556.3L293.91 557.71L293.97 559.11L293.98 560.51L293.93 561.91L293.83 563.29L293.67 564.67L293.46 566.04L293.2 567.4L292.89 568.74L292.53 570.07L292.11 571.38L291.65 572.67L291.14 573.95L290.58 575.2L289.97 576.43L289.32 577.64L288.62 578.82L287.88 579.98L287.09 581.11L286.26 582.2L285.38 583.27L284.46 584.31L283.5 585.31L282.5 586.27L281.46 587.2L280.38 588.09L279.26 588.94L278.1 589.75L276.9 590.51L275.67 591.23L274.4 591.91L273.1 592.54L271.76 593.11L270.38 593.64L269.27 594.03L268.14 594.37L267.02 594.68L265.89 594.94L264.76 595.17L263.63 595.36L262.5 595.52L261.37 595.64L260.24 595.72L259.11 595.76L257.99 595.77L256.87 595.74L255.75 595.68L254.64 595.58L253.54 595.45L252.44 595.28L251.35 595.08L250.27 594.85L249.2 594.59L248.13 594.29L247.08 593.96L246.04 593.6L245.01 593.2L243.99 592.78L242.99 592.32L242 591.83L241.03 591.32L240.07 590.77L239.13 590.2L238.2 589.59L237.3 588.96L236.41 588.3L235.54 587.61L234.7 586.89L233.87 586.15L233.07 585.37L232.29 584.58L231.53 583.75L230.8 582.9L230.09 582.03L229.82 582.3L229.55 582.56L229.27 582.82L228.99 583.08L228.71 583.33L228.43 583.59L228.14 583.84L227.85 584.08L227.56 584.33L227.26 584.57L226.96 584.81L226.66 585.04L226.36 585.28L226.05 585.51L225.74 585.73L225.43 585.96L225.11 586.18L224.79 586.39L224.47 586.61L224.15 586.82L223.82 587.03L223.49 587.23L223.16 587.43L222.82 587.63L222.48 587.82L222.14 588.01L221.8 588.2L221.45 588.38L221.1 588.56L220.75 588.74L220.4 588.91L220.04 589.08L219.68 589.25L219.32 589.41L218.96 589.57L218.59 589.72L218.22 589.87L217.85 590.02L217.47 590.16L217.09 590.3L215.7 590.77L214.3 591.19L212.9 591.54L211.49 591.83L210.08 592.06L208.67 592.24L207.26 592.36L205.86 592.42L204.46 592.43L203.07 592.38L201.68 592.28L200.3 592.12L198.93 591.91L197.58 591.65L196.23 591.34L194.91 590.98L193.6 590.56L192.3 590.1L191.03 589.59L189.77 589.03L188.54 588.42L187.33 587.77L186.15 587.07L184.99 586.33L183.87 585.54L182.77 584.71L181.7 583.83L180.67 582.91L179.67 581.95L178.7 580.95L177.77 579.91L176.88 578.83L176.03 577.71L175.22 576.55L174.46 575.35L173.74 574.12L173.06 572.85L172.44 571.55L171.86 570.21L171.33 568.84L170.86 567.44L170.45 566.04L170.1 564.64L169.8 563.23L169.57 561.82L169.39 560.41L169.27 559.01L169.21 557.6L169.2 556.2L169.25 554.81L169.35 553.42L169.51 552.04L169.72 550.67L169.98 549.32L170.29 547.98L170.65 546.65L171.07 545.34L171.53 544.04L172.04 542.77L172.6 541.52L173.21 540.28L173.86 539.08L174.56 537.89L175.3 536.74L176.09 535.61L176.93 534.51L177.8 533.44L178.72 532.41L179.68 531.41L180.68 530.44L181.72 529.51L182.8 528.62L183.92 527.77L185.08 526.97L186.28 526.2L187.51 525.48L188.78 524.81L190.08 524.18L191.42 523.6L192.8 523.07L193.92 522.69L195.04 522.34L196.16 522.04L197.29 521.77L198.42 521.54L199.55 521.35L200.68 521.2L201.81 521.08L202.94 521L204.07 520.95L205.19 520.95L206.31 520.97L207.43 521.04L208.54 521.13L209.64 521.26L210.74 521.43L211.83 521.63L212.91 521.86L213.99 522.13L215.05 522.43L216.1 522.76L217.14 523.12L218.17 523.51L219.19 523.94L220.19 524.39L221.18 524.88L222.16 525.4L223.11 525.94L224.05 526.52L224.98 527.12L225.88 527.76L226.77 528.42L227.64 529.11L228.48 529.83L229.31 530.57L230.11 531.34L230.89 532.14L231.65 532.96L232.38 533.81L233.09 534.68L233.36 534.42L233.63 534.16L233.91 533.89L234.19 533.64L234.47 533.38L234.75 533.13L235.04 532.88L235.33 532.63L235.62 532.39L235.92 532.15L236.22 531.91L236.52 531.67L236.82 531.44L237.13 531.21L237.44 530.98L237.76 530.76L238.07 530.54L238.39 530.32L238.71 530.11L239.04 529.9L239.36 529.69L239.69 529.49L240.02 529.28L240.36 529.09L240.7 528.89L241.04 528.7L241.38 528.51L241.73 528.33L242.08 528.15L242.43 527.97L242.78 527.8L243.14 527.63L243.5 527.47L243.86 527.3L244.22 527.15L244.59 526.99L244.96 526.84L245.34 526.69L245.71 526.55L246.09 526.41L246.21 526.37L246.34 526.32L246.47 526.28L246.59 526.23L246.72 526.19L246.85 526.15L246.98 526.11L247.1 526.07L247.23 526.03L247.36 525.99L247.48 525.95L247.61 525.91L247.74 525.87L247.87 525.83L247.99 525.8L248.12 525.76L248.25 525.72L248.38 525.69L248.5 525.65L248.63 525.62L248.76 525.59L248.89 525.55L249.02 525.52L249.14 525.49L249.27 525.46L249.4 525.42L249.53 525.39L249.65 525.36L249.78 525.33L249.91 525.3L250.04 525.27L250.17 525.25L250.29 525.22L250.42 525.19L250.55 525.16L250.68 525.13L250.81 525.11L250.94 525.08L251.06 525.05L251.19 525.03L251.18 525L251.16 524.96L251.15 524.93L251.14 524.9L251.12 524.86L251.11 524.83L251.1 524.8L251.08 524.77L251.07 524.73L251.05 524.7L251.04 524.67L251.03 524.64L251.01 524.61L251 524.57L250.97 524.51L250.94 524.44L250.93 524.41L250.91 524.38L250.9 524.35L250.88 524.31L250.87 524.28L250.86 524.25L250.84 524.22L250.83 524.18L250.81 524.15L250.8 524.12L250.79 524.09L250.77 524.05L250.76 524.02L250.75 523.99L250.73 523.96L250.72 523.92L250.71 523.89L250.69 523.86L250.68 523.82L250.67 523.79L250.66 523.76L250.64 523.72L250.17 522.33L249.76 520.93L249.41 519.53L249.12 518.12L248.88 516.71L248.71 515.3L248.59 513.89L248.52 512.49L248.52 511.09L248.57 509.69L248.67 508.31L248.82 506.93L249.03 505.56L249.29 504.21L249.61 502.86L249.97 501.54L250.38 500.22L250.84 498.93L251.36 497.66L251.91 496.4L252.52 495.17L253.17 493.96L253.87 492.78L254.62 491.62L255.41 490.5L256.24 489.4L257.12 488.33L258.03 487.3L258.99 486.29L259.99 485.33L261.04 484.4L262.12 483.51L263.24 482.66L264.4 481.85L265.59 481.09L266.82 480.37L268.09 479.69L269.4 479.07L270.74 478.49L272.11 477.96L273.5 477.49L274.9 477.08L276.31 476.72L277.72 476.43L279.12 476.2L280.53 476.02L281.94 475.9L283.35 475.84L284.75 475.83L286.14 475.88L287.53 475.98ZM255.26 544.05L253.98 544.35L252.71 544.75L251.48 545.25L250.31 545.85L249.2 546.52L248.17 547.27L247.2 548.1L246.31 548.99L245.49 549.95L244.75 550.96L244.1 552.02L243.53 553.13L243.04 554.28L242.64 555.46L242.34 556.68L242.12 557.91L242.01 559.17L241.99 560.44L242.07 561.72L242.26 563L242.55 564.28L242.95 565.55L243.46 566.79L244.05 567.96L244.73 569.06L245.48 570.1L246.3 571.06L247.2 571.96L248.15 572.77L249.16 573.51L250.23 574.17L251.33 574.74L252.48 575.22L253.67 575.62L254.88 575.93L256.12 576.14L257.38 576.26L258.65 576.28L259.92 576.19L261.21 576.01L262.49 575.71L263.76 575.31L264.99 574.81L266.16 574.21L267.27 573.54L268.3 572.79L269.27 571.96L270.16 571.07L270.98 570.11L271.72 569.1L272.37 568.04L272.94 566.93L273.43 565.78L273.83 564.6L274.13 563.38L274.35 562.15L274.46 560.89L274.48 559.62L274.4 558.34L274.21 557.06L273.92 555.78L273.51 554.51L273.01 553.27L272.42 552.1L271.74 551L270.99 549.96L270.16 548.99L269.27 548.1L268.32 547.29L267.31 546.55L266.24 545.89L265.13 545.32L263.99 544.83L262.8 544.44L261.59 544.13L260.35 543.92L259.09 543.8L257.82 543.78L256.55 543.87L255.26 544.05ZM201.97 540.71L200.69 541.01L199.42 541.41L198.19 541.91L197.02 542.51L195.91 543.18L194.87 543.93L193.91 544.76L193.02 545.65L192.2 546.61L191.46 547.62L190.81 548.68L190.24 549.79L189.75 550.94L189.35 552.12L189.04 553.34L188.83 554.57L188.72 555.83L188.7 557.1L188.78 558.38L188.97 559.66L189.26 560.94L189.66 562.21L190.17 563.45L190.76 564.62L191.44 565.72L192.19 566.76L193.01 567.72L193.91 568.62L194.86 569.43L195.87 570.17L196.94 570.83L198.04 571.4L199.19 571.88L200.38 572.28L201.59 572.59L202.83 572.8L204.08 572.92L205.35 572.94L206.63 572.85L207.92 572.67L209.19 572.37L210.47 571.97L211.7 571.47L212.87 570.87L213.98 570.2L215.01 569.45L215.98 568.62L216.87 567.73L217.69 566.77L218.43 565.76L219.08 564.7L219.65 563.59L220.14 562.44L220.54 561.26L220.84 560.04L221.06 558.81L221.17 557.55L221.19 556.28L221.11 555L220.92 553.72L220.63 552.44L220.22 551.17L219.72 549.93L219.13 548.76L218.45 547.66L217.7 546.62L216.87 545.65L215.98 544.76L215.03 543.95L214.01 543.21L212.95 542.55L211.84 541.98L210.7 541.49L209.51 541.1L208.3 540.79L207.06 540.58L205.8 540.46L204.53 540.44L203.25 540.53L201.97 540.71ZM281.29 495.6L280.01 495.89L278.74 496.29L277.5 496.8L276.33 497.39L275.23 498.07L274.19 498.82L273.22 499.64L272.33 500.54L271.52 501.49L270.78 502.5L270.12 503.57L269.55 504.67L269.06 505.82L268.67 507.01L268.36 508.22L268.15 509.46L268.03 510.72L268.01 511.99L268.1 513.26L268.28 514.55L268.58 515.83L268.98 517.1L269.48 518.33L270.07 519.5L270.75 520.61L271.5 521.64L272.33 522.61L273.22 523.5L274.18 524.32L275.19 525.06L276.25 525.71L277.36 526.28L278.51 526.77L279.69 527.17L280.9 527.47L282.14 527.69L283.4 527.8L284.67 527.82L285.95 527.74L287.23 527.55L288.51 527.26L289.78 526.85L291.02 526.35L292.19 525.76L293.29 525.08L294.33 524.33L295.29 523.5L296.19 522.61L297 521.66L297.74 520.65L298.4 519.58L298.97 518.48L299.45 517.33L299.85 516.14L300.16 514.93L300.37 513.69L300.49 512.43L300.51 511.16L300.42 509.89L300.23 508.6L299.94 507.32L299.54 506.05L299.04 504.82L298.44 503.65L297.77 502.54L297.01 501.5L296.19 500.54L295.3 499.65L294.34 498.83L293.33 498.09L292.27 497.44L291.16 496.87L290.01 496.38L288.83 495.98L287.61 495.68L286.38 495.46L285.12 495.35L283.85 495.33L282.57 495.41L281.29 495.6Z" id="b1dJme2Gl" fill="white" fill-opacity="1" filter="url(#shadow13014744)"></path></g><use xlink:href="#dIB8T4L2W" opacity="1" fill="#878787" fill-opacity="1"></use><g><use xlink:href="#dIB8T4L2W" opacity="1" fill-opacity="0" stroke="#000000" stroke-width="1" stroke-opacity="0"></use></g></g><g><g><filter id="shadow15010503" x="40.65" y="71.82" width="290.86" height="419.33" filterUnits="userSpaceOnUse" primitiveUnits="userSpaceOnUse"><feFlood></feFlood><feComposite in2="SourceAlpha" operator="in"></feComposite><feGaussianBlur stdDeviation="1"></feGaussianBlur><feOffset dx="1" dy="1" result="afterOffset"></feOffset><feFlood flood-color="#000000" flood-opacity="0.5"></feFlood><feComposite in2="afterOffset" operator="in"></feComposite><feMorphology operator="dilate" radius="1"></feMorphology><feComposite in2="SourceAlpha" operator="out"></feComposite></filter><path d="M213.89 80.97L218.29 81.23L222.66 81.61L227.02 82.11L231.35 82.74L235.66 83.48L239.95 84.34L244.2 85.32L248.42 86.42L252.61 87.63L256.77 88.96L260.88 90.4L264.95 91.95L268.98 93.61L272.96 95.39L276.89 97.27L280.77 99.26L284.6 101.36L288.37 103.57L292.08 105.88L295.73 108.3L299.32 110.82L302.84 113.45L306.29 116.17L309.66 119L308.63 120.12L307.61 121.25L306.6 122.38L305.6 123.53L304.61 124.68L303.63 125.83L302.66 127L301.7 128.17L300.75 129.35L299.8 130.53L298.87 131.73L297.95 132.93L297.04 134.13L296.14 135.35L295.25 136.57L294.36 137.8L293.49 139.04L292.63 140.28L291.78 141.53L290.94 142.78L290.11 144.05L289.29 145.32L288.48 146.6L287.68 147.88L286.89 149.17L286.11 150.47L285.34 151.77L284.58 153.08L283.84 154.4L283.1 155.73L282.37 157.06L281.66 158.4L280.95 159.74L280.26 161.09L279.57 162.45L278.9 163.81L278.24 165.18L277.58 166.56L276.94 167.94L276.31 169.33L276.19 169.61L276.06 169.89L275.94 170.17L275.81 170.45L275.69 170.73L275.57 171.01L275.45 171.29L275.33 171.57L275.21 171.85L275.09 172.13L274.97 172.41L274.85 172.69L274.73 172.97L274.62 173.25L274.5 173.53L274.38 173.81L274.27 174.09L274.15 174.37L274.04 174.66L273.92 174.94L273.81 175.22L273.69 175.5L273.58 175.78L273.47 176.07L273.36 176.35L273.24 176.63L273.13 176.92L273.02 177.2L272.91 177.48L272.8 177.76L272.69 178.05L272.58 178.33L272.47 178.61L272.37 178.9L272.26 179.18L272.15 179.47L272.04 179.75L271.94 180.03L271.83 180.32L271.72 180.6L271.04 179.84L270.35 179.09L269.65 178.34L268.94 177.61L268.23 176.88L267.5 176.16L266.77 175.45L266.02 174.75L265.27 174.06L264.52 173.38L263.75 172.7L262.97 172.04L262.19 171.38L261.4 170.73L260.6 170.1L259.79 169.47L258.98 168.85L258.16 168.24L257.32 167.64L256.49 167.05L255.64 166.47L254.79 165.9L253.93 165.34L253.06 164.78L252.19 164.24L251.3 163.71L250.41 163.19L249.52 162.68L248.61 162.18L247.7 161.68L246.78 161.2L245.86 160.73L244.93 160.27L243.99 159.82L243.05 159.38L242.09 158.96L241.14 158.54L240.17 158.13L239.2 157.73L238.22 157.35L236.6 156.74L234.97 156.16L233.34 155.62L231.69 155.11L230.05 154.63L228.39 154.19L226.74 153.78L225.07 153.4L223.41 153.05L221.74 152.74L220.06 152.47L218.39 152.22L216.71 152.01L215.03 151.83L213.34 151.69L211.66 151.58L209.98 151.5L208.29 151.46L206.61 151.45L204.92 151.47L203.24 151.52L201.55 151.61L199.87 151.73L198.19 151.89L196.52 152.08L194.84 152.3L193.17 152.55L191.5 152.84L189.84 153.16L188.18 153.52L186.53 153.9L184.88 154.32L183.24 154.78L181.6 155.26L179.97 155.78L178.34 156.33L176.73 156.92L175.12 157.54L173.52 158.19L171.93 158.87L170.35 159.59L168.79 160.33L167.25 161.1L165.72 161.9L164.22 162.73L162.74 163.59L161.28 164.47L159.83 165.38L158.41 166.31L157.01 167.27L155.63 168.26L154.28 169.28L152.94 170.31L151.63 171.38L150.33 172.46L149.06 173.58L147.82 174.71L146.6 175.87L145.4 177.06L144.22 178.26L143.07 179.49L141.94 180.75L140.84 182.02L139.76 183.32L138.71 184.64L137.68 185.98L136.68 187.34L135.7 188.72L134.75 190.12L133.83 191.55L132.93 192.99L132.07 194.45L131.22 195.94L130.41 197.44L129.62 198.96L128.87 200.5L128.14 202.05L127.44 203.63L126.77 205.22L126.12 206.83L125.51 208.45L124.94 210.08L124.39 211.72L123.88 213.36L123.4 215.01L122.96 216.66L122.55 218.32L122.17 219.98L121.83 221.65L121.52 223.32L121.24 224.99L121 226.67L120.79 228.35L120.61 230.03L120.47 231.71L120.36 233.39L120.28 235.08L120.23 236.76L120.22 238.45L120.24 240.13L120.3 241.82L120.39 243.5L120.51 245.18L120.67 246.86L120.85 248.54L121.07 250.21L121.33 251.88L121.62 253.55L121.94 255.21L122.29 256.87L122.68 258.53L123.1 260.18L123.55 261.82L124.04 263.46L124.56 265.09L125.11 266.71L125.69 268.33L126.31 269.94L126.96 271.54L127.65 273.13L128.36 274.71L129.11 276.27L129.88 277.81L130.68 279.33L131.51 280.83L132.36 282.32L133.24 283.78L134.15 285.22L135.09 286.64L136.05 288.04L137.04 289.42L138.05 290.78L139.09 292.12L140.15 293.43L141.24 294.72L142.35 295.99L143.49 297.24L144.65 298.46L145.83 299.66L147.04 300.83L148.27 301.99L149.52 303.11L150.8 304.22L152.09 305.29L153.41 306.35L154.75 307.37L156.12 308.38L157.5 309.35L158.9 310.3L160.32 311.22L161.77 312.12L163.23 312.99L164.71 313.83L166.21 314.64L167.73 315.43L169.27 316.19L170.83 316.92L172.4 317.62L174 318.29L175.61 318.93L177.23 319.54L178.86 320.12L180.49 320.66L182.14 321.17L183.78 321.65L185.44 322.09L187.09 322.5L188.76 322.88L190.42 323.23L192.09 323.54L193.77 323.81L195.44 324.06L197.12 324.27L198.8 324.44L200.49 324.59L202.17 324.7L203.85 324.78L205.54 324.82L207.23 324.83L208.91 324.81L210.59 324.76L212.28 324.67L213.96 324.55L215.64 324.39L217.31 324.2L218.99 323.98L220.66 323.73L222.33 323.44L223.99 323.12L225.65 322.76L227.3 322.38L228.95 321.96L230.6 321.5L232.23 321.02L233.86 320.5L235.49 319.95L237.1 319.36L238.71 318.74L240.31 318.09L241.91 317.41L242.64 317.08L243.38 316.74L244.11 316.4L244.83 316.05L245.56 315.69L246.27 315.33L246.99 314.97L247.7 314.59L248.4 314.21L249.1 313.83L249.8 313.44L250.49 313.04L251.18 312.63L251.86 312.23L252.54 311.81L253.22 311.39L253.89 310.96L254.55 310.53L255.21 310.09L255.87 309.65L256.52 309.2L257.17 308.74L257.81 308.28L258.45 307.81L259.08 307.34L259.71 306.86L260.33 306.38L260.95 305.89L261.57 305.4L262.18 304.9L262.78 304.4L263.38 303.89L263.98 303.37L264.57 302.85L265.15 302.32L265.73 301.79L266.31 301.26L266.88 300.72L267.44 300.17L268 299.62L268.22 300.32L268.43 301.02L268.66 301.71L268.89 302.41L269.12 303.11L269.36 303.8L269.61 304.5L269.86 305.19L270.11 305.88L270.37 306.57L270.63 307.26L270.9 307.95L271.17 308.64L271.44 309.33L271.72 310.02L272 310.7L272.28 311.39L272.57 312.07L272.86 312.75L273.16 313.44L273.45 314.12L273.75 314.8L274.05 315.47L274.35 316.15L274.66 316.83L274.97 317.5L275.28 318.18L275.59 318.85L275.9 319.52L276.21 320.19L276.53 320.86L276.84 321.53L277.16 322.19L277.47 322.86L277.79 323.52L278.11 324.18L278.43 324.85L278.74 325.51L279.06 326.16L279.38 326.82L280.15 328.38L280.94 329.94L281.75 331.49L282.59 333.03L283.45 334.57L284.33 336.09L285.23 337.61L286.14 339.13L287.08 340.63L288.04 342.13L289.01 343.62L290 345.1L291 346.57L292.02 348.03L293.05 349.49L294.1 350.93L295.16 352.37L296.23 353.8L297.32 355.22L298.41 356.63L299.52 358.03L300.63 359.42L301.75 360.8L302.89 362.17L304.02 363.53L305.17 364.88L306.32 366.22L307.48 367.55L308.64 368.86L309.8 370.17L310.97 371.47L312.14 372.76L313.32 374.03L314.49 375.29L315.66 376.55L316.84 377.79L318.01 379.01L319.18 380.23L320.35 381.43L321.51 382.63L320.23 441.37L320.23 441.55L320.22 441.73L320.21 441.91L320.2 442.09L320.18 442.27L320.16 442.45L320.15 442.63L320.12 442.81L320.1 442.98L320.08 443.16L320.05 443.34L320.03 443.52L320 443.7L319.97 443.88L319.94 444.05L319.92 444.23L319.89 444.41L319.86 444.59L319.83 444.77L319.8 444.94L319.77 445.12L319.75 445.3L319.72 445.48L319.69 445.65L319.67 445.83L319.65 446.01L319.63 446.18L319.61 446.36L319.59 446.54L319.57 446.71L319.56 446.89L319.55 447.07L319.54 447.24L319.53 447.42L319.53 447.6L319.52 447.77L319.53 447.95L319.53 448.12L319.54 448.3L319.55 448.48L252.62 477.81L251.13 478.43L249.63 478.99L248.12 479.48L246.59 479.91L245.07 480.27L243.53 480.57L242 480.81L240.46 480.98L238.92 481.1L237.39 481.15L235.86 481.15L234.33 481.08L232.81 480.96L231.3 480.77L229.8 480.53L228.32 480.24L226.84 479.89L225.39 479.48L223.95 479.01L222.52 478.5L221.12 477.93L219.75 477.3L218.39 476.63L217.06 475.9L215.76 475.12L214.49 474.3L213.25 473.42L212.04 472.49L210.87 471.51L209.73 470.49L208.63 469.42L207.57 468.31L206.55 467.14L205.58 465.94L204.65 464.68L203.76 463.39L202.93 462.05L202.14 460.67L201.4 459.24L200.72 457.78L171.28 391.33L167.8 390.47L164.35 389.54L160.92 388.53L157.52 387.44L154.14 386.28L150.79 385.04L147.47 383.73L144.18 382.34L140.92 380.87L137.69 379.34L134.5 377.73L131.34 376.05L128.22 374.29L125.14 372.47L122.1 370.57L119.1 368.6L116.14 366.56L113.23 364.46L110.36 362.28L107.54 360.04L104.76 357.73L102.04 355.35L99.37 352.91L96.75 350.4L94.18 347.82L91.67 345.18L89.21 342.47L86.81 339.7L84.48 336.87L82.2 333.97L79.98 331.01L77.83 327.99L75.74 324.91L73.72 321.76L71.77 318.56L69.89 315.3L68.07 311.98L66.33 308.6L64.66 305.16L63.07 301.66L60.57 295.67L58.34 289.65L56.36 283.58L54.65 277.49L53.19 271.37L51.99 265.23L51.03 259.09L50.33 252.94L49.87 246.79L49.65 240.65L49.67 234.53L49.94 228.44L50.43 222.37L51.16 216.34L52.12 210.35L53.31 204.42L54.72 198.54L56.36 192.72L58.22 186.97L60.29 181.3L62.58 175.71L65.08 170.22L67.79 164.81L70.7 159.52L73.83 154.33L77.15 149.26L80.67 144.31L84.39 139.49L88.3 134.81L92.41 130.27L96.7 125.88L101.18 121.65L105.85 117.58L110.69 113.69L115.72 109.96L120.92 106.43L126.29 103.08L131.83 99.93L137.55 96.98L143.43 94.24L147.74 92.41L152.08 90.72L156.44 89.16L160.82 87.74L165.21 86.46L169.62 85.31L174.04 84.29L178.47 83.41L182.9 82.65L187.34 82.03L191.78 81.54L196.21 81.17L200.64 80.93L205.07 80.82L209.49 80.83L213.89 80.97ZM272.02 386.29L270.71 386.46L269.42 386.72L268.16 387.05L266.93 387.45L265.74 387.93L264.58 388.47L263.46 389.08L262.38 389.75L261.35 390.49L260.36 391.28L259.42 392.13L258.53 393.03L257.7 393.98L256.92 394.98L256.2 396.03L255.54 397.12L254.95 398.26L254.43 399.43L253.97 400.64L253.58 401.88L253.27 403.16L253.04 404.46L252.89 405.79L252.81 407.14L252.83 408.5L252.92 409.84L253.1 411.15L253.35 412.43L253.68 413.69L254.09 414.92L254.56 416.12L255.11 417.27L255.71 418.39L256.39 419.47L257.12 420.51L257.91 421.49L258.76 422.43L259.66 423.32L260.62 424.16L261.62 424.93L262.67 425.65L263.76 426.31L264.89 426.9L266.06 427.43L267.27 427.89L268.52 428.27L269.79 428.58L271.09 428.82L272.42 428.97L273.78 429.04L275.13 429.03L276.47 428.93L277.78 428.76L279.07 428.5L280.33 428.17L281.56 427.77L282.75 427.29L283.91 426.75L285.03 426.14L286.11 425.47L287.14 424.73L288.13 423.94L289.07 423.09L289.96 422.19L290.79 421.24L291.57 420.24L292.29 419.19L292.95 418.1L293.54 416.96L294.06 415.79L294.52 414.58L294.91 413.34L295.22 412.06L295.45 410.76L295.6 409.43L295.68 408.08L295.66 406.72L295.57 405.38L295.39 404.07L295.14 402.79L294.81 401.53L294.4 400.3L293.93 399.11L293.38 397.95L292.78 396.83L292.1 395.75L291.37 394.71L290.58 393.73L289.73 392.79L288.83 391.9L287.87 391.06L286.87 390.29L285.82 389.57L284.73 388.91L283.6 388.32L282.43 387.79L281.22 387.33L279.97 386.95L278.7 386.64L277.4 386.4L276.07 386.25L274.71 386.18L273.36 386.19L272.02 386.29Z" id="fhXlmqXa5" fill="white" fill-opacity="1" filter="url(#shadow15010503)"></path></g><use xlink:href="#c3Ns0OAky" opacity="1" fill="url(#gradientb8Fn3uzj0)"></use><use xlink:href="#c3Ns0OAky" opacity="1" fill="#878787" fill-opacity="1"></use></g><g><g><use xlink:href="#aouiumb3" opacity="1" fill="#000000" fill-opacity="1"></use></g><g><use xlink:href="#arufZ9hfo" opacity="1" fill="#5a0000" fill-opacity="1"></use></g></g></g></svg>